<svg width="900" height="700" viewBox="0 0 900 700" fill="none" xmlns="http://www.w3.org/2000/svg">
  <defs>
    <linearGradient id="bg" x1="0" y1="0" x2="900" y2="700" gradientUnits="userSpaceOnUse">
      <stop stop-color="#EEF3F7"/>
      <stop offset="1" stop-color="#E7ECEF"/>
    </linearGradient>
  </defs>
  <rect width="900" height="700" rx="42" fill="url(#bg)"/>
  <rect x="220" y="120" width="460" height="420" rx="28" fill="#FFFFFF" stroke="#CBD5DF" stroke-width="4"/>
  <rect x="250" y="150" width="20" height="360" rx="10" fill="#1F2933"/>
  <rect x="310" y="180" width="300" height="16" rx="8" fill="#D97C1F"/>
  <rect x="310" y="224" width="260" height="16" rx="8" fill="#D6DEE6"/>
  <rect x="310" y="266" width="280" height="16" rx="8" fill="#D6DEE6"/>
  <rect x="310" y="308" width="220" height="16" rx="8" fill="#D6DEE6"/>
  <rect x="310" y="350" width="270" height="16" rx="8" fill="#D6DEE6"/>
  <rect x="310" y="392" width="190" height="16" rx="8" fill="#D6DEE6"/>
  <rect x="310" y="434" width="240" height="16" rx="8" fill="#D6DEE6"/>
  <rect x="610" y="120" width="70" height="420" rx="28" fill="#0F6E6B"/>
  <circle cx="645" cy="180" r="12" fill="#FFFFFF" fill-opacity="0.7"/>
  <circle cx="645" cy="240" r="12" fill="#FFFFFF" fill-opacity="0.7"/>
  <circle cx="645" cy="300" r="12" fill="#FFFFFF" fill-opacity="0.7"/>
  <circle cx="645" cy="360" r="12" fill="#FFFFFF" fill-opacity="0.7"/>
  <circle cx="645" cy="420" r="12" fill="#FFFFFF" fill-opacity="0.7"/>
  <text x="90" y="90" fill="#1F2933" font-family="Sora, Arial, sans-serif" font-size="36" font-weight="700">Spiral Notebook</text>
</svg>